<?xml version="1.0" standalone="no"?>
<!DOCTYPE svg PUBLIC "-//W3C//DTD SVG 20010904//EN"
 "http://www.w3.org/TR/2001/REC-SVG-20010904/DTD/svg10.dtd">
<svg version="1.0" xmlns="http://www.w3.org/2000/svg"
 width="309.000000pt" height="309.000000pt" viewBox="0 0 309.000000 309.000000"
 preserveAspectRatio="xMidYMid meet">

<g transform="translate(0.000000,309.000000) scale(0.100000,-0.100000)"
fill="#000000" stroke="none">
<path d="M0 1545 l0 -1545 1545 0 1545 0 0 1545 0 1545 -1545 0 -1545 0 0
-1545z m1589 816 c8 -15 6 -25 -11 -46 -19 -25 -20 -31 -9 -78 16 -70 48 -135
77 -153 21 -14 26 -14 58 1 35 17 136 117 136 135 0 5 -4 12 -10 15 -15 9 -12
41 5 55 9 7 25 10 41 6 20 -5 25 -12 22 -34 -2 -19 -10 -28 -25 -30 -18 -3
-24 -14 -33 -59 -31 -149 39 -189 151 -86 18 16 25 31 22 47 -5 25 16 40 43
29 23 -9 13 -47 -13 -51 -24 -4 -92 -88 -133 -165 l-25 -47 -340 0 -340 0 -28
53 c-41 79 -99 150 -127 157 -29 7 -40 44 -16 53 27 11 45 -3 48 -36 2 -23 14
-40 46 -64 85 -65 140 -32 129 76 -8 75 -15 91 -38 91 -24 0 -36 27 -22 49 13
21 53 20 67 -1 8 -13 8 -23 0 -36 -10 -15 -5 -27 25 -69 46 -65 86 -96 122
-96 50 0 77 38 110 152 18 64 18 65 -1 78 -22 16 -26 43 -8 61 19 19 66 15 77
-7z m-79 -753 l0 -232 -70 69 -70 69 0 88 0 88 -70 0 -70 0 0 -42 c0 -42 4
-47 140 -183 l140 -141 -2 -304 -3 -305 -212 275 -213 275 0 115 0 114 75 -74
c41 -41 75 -83 75 -93 0 -17 108 -168 130 -182 6 -4 10 17 10 56 l0 61 -145
145 -145 145 0 144 0 144 215 0 215 0 0 -232z m220 167 l66 -65 64 65 c59 60
68 65 107 65 l43 0 0 -287 0 -286 -67 -89 c-37 -48 -71 -88 -75 -88 -5 0 -8
109 -8 242 l0 242 -35 -34 -35 -34 -35 34 -35 34 0 -342 0 -342 -66 -85 c-36
-47 -67 -85 -70 -85 -2 0 -4 252 -4 560 l0 560 42 0 c39 0 48 -6 108 -65z"/>
</g>
</svg>
