<?xml version="1.0" standalone="no"?>
<!DOCTYPE svg PUBLIC "-//W3C//DTD SVG 20010904//EN"
 "http://www.w3.org/TR/2001/REC-SVG-20010904/DTD/svg10.dtd">
<svg version="1.0" xmlns="http://www.w3.org/2000/svg"
 width="407.000000pt" height="305.000000pt" viewBox="0 0 407.000000 305.000000"
 preserveAspectRatio="xMidYMid meet">

<g transform="translate(0.000000,305.000000) scale(0.100000,-0.100000)"
fill="#000000" stroke="none">
<path d="M0 1525 l0 -1525 2035 0 2035 0 0 1525 0 1525 -2035 0 -2035 0 0
-1525z m1597 944 c171 -23 371 -115 492 -226 l56 -52 -33 -1 c-25 0 -50 13
-100 51 -184 139 -433 207 -654 179 -384 -50 -681 -316 -775 -696 -25 -103
-22 -314 6 -419 66 -246 224 -449 443 -569 135 -75 267 -107 436 -107 209 0
385 60 548 186 43 34 66 45 92 45 35 0 35 0 16 -21 -37 -41 -135 -111 -217
-154 -555 -292 -1219 13 -1374 633 -27 106 -24 332 6 442 127 475 575 775
1058 709z m18 -424 c63 -18 135 -63 163 -103 26 -36 27 -46 6 -66 -24 -24 -48
-19 -90 19 -59 55 -132 77 -234 73 -154 -6 -235 -72 -227 -185 7 -96 68 -144
272 -211 165 -55 227 -92 269 -165 33 -55 44 -148 26 -212 -17 -62 -86 -137
-158 -172 -53 -26 -65 -28 -182 -28 -119 0 -128 1 -190 31 -77 37 -166 105
-175 134 -8 24 18 60 43 60 8 0 36 -18 62 -40 73 -61 151 -93 240 -98 163 -9
270 63 270 183 0 100 -64 156 -250 219 -151 51 -218 86 -262 134 -45 49 -62
100 -62 178 1 202 226 319 479 249z m678 -295 c108 -162 201 -296 205 -297 4
-1 88 120 187 269 99 150 191 284 203 300 27 31 53 36 76 12 14 -14 16 -73 16
-506 0 -443 -2 -493 -17 -510 -20 -22 -41 -23 -65 -1 -17 15 -18 42 -18 431
l0 415 -180 -272 c-167 -253 -182 -272 -207 -269 -22 3 -52 42 -202 271 l-176
268 -5 -421 c-4 -359 -7 -422 -20 -430 -22 -14 -36 -12 -54 6 -14 14 -16 74
-16 513 0 532 -1 525 50 519 21 -2 60 -55 223 -298z"/>
</g>
</svg>
