<?xml version="1.0" standalone="no"?>
<!DOCTYPE svg PUBLIC "-//W3C//DTD SVG 20010904//EN"
 "http://www.w3.org/TR/2001/REC-SVG-20010904/DTD/svg10.dtd">
<svg version="1.0" xmlns="http://www.w3.org/2000/svg"
 width="309.000000pt" height="305.000000pt" viewBox="0 0 309.000000 305.000000"
 preserveAspectRatio="xMidYMid meet">
<metadata>
Created by potrace 1.16, written by Peter Selinger 2001-2019
</metadata>
<g transform="translate(0.000000,305.000000) scale(0.030900,-0.030500)"
fill="#000000" stroke="none">
<path d="M0 5000 l0 -5000 5000 0 5000 0 0 5000 0 5000 -5000 0 -5000 0 0
-5000z m4065 2151 c312 -59 578 -165 825 -328 110 -72 257 -191 325 -262 l39
-41 -77 0 -77 0 -103 83 c-600 485 -1412 601 -2114 301 -626 -268 -1080 -823
-1219 -1494 -160 -770 149 -1585 781 -2060 281 -211 591 -341 947 -397 168
-26 462 -24 629 6 386 67 711 216 1000 457 l77 64 78 0 78 0 -39 -41 c-125
-130 -352 -292 -545 -389 -332 -166 -657 -237 -1040 -227 -214 5 -347 25 -532
77 -776 218 -1377 860 -1543 1650 -59 279 -59 621 0 900 183 871 890 1552
1763 1700 172 29 168 28 412 25 177 -2 248 -7 335 -24z m-139 -937 c230 -40
427 -156 511 -298 24 -40 16 -85 -21 -122 -54 -54 -87 -48 -168 29 -81 76
-156 122 -257 158 -324 114 -691 19 -803 -208 -30 -61 -33 -75 -33 -158 0 -83
3 -97 33 -158 72 -146 217 -230 637 -366 265 -86 416 -168 513 -277 96 -107
141 -239 142 -409 0 -148 -40 -262 -129 -369 -162 -195 -451 -295 -774 -266
-241 21 -412 95 -619 267 -48 40 -95 87 -104 104 -23 45 -11 90 32 128 53 47
81 42 156 -26 146 -131 272 -204 423 -244 108 -30 338 -32 435 -5 153 42 262
119 321 228 33 61 34 67 34 173 0 105 -2 114 -33 177 -69 140 -216 228 -582
348 -404 132 -565 238 -651 425 -39 87 -52 168 -47 292 6 131 33 210 102 307
165 231 508 336 882 270z m1198 -25 c16 -8 175 -238 477 -690 249 -374 456
-679 460 -679 4 0 209 300 454 668 246 367 458 677 472 690 39 35 96 31 139
-12 l34 -34 -2 -1137 -3 -1137 -33 -29 c-47 -43 -102 -41 -148 5 l-34 34 0
957 0 957 -405 -613 c-223 -338 -411 -619 -418 -626 -17 -16 -67 -22 -99 -11
-21 8 -114 143 -435 631 l-408 621 -5 -963 -5 -963 -33 -29 c-44 -40 -93 -40
-133 0 l-29 29 0 1142 0 1142 29 29 c32 32 79 38 125 18z"/>
</g>
</svg>
