<?xml version="1.0" standalone="no"?>
<!DOCTYPE svg PUBLIC "-//W3C//DTD SVG 20010904//EN"
 "http://www.w3.org/TR/2001/REC-SVG-20010904/DTD/svg10.dtd">
<svg version="1.0" xmlns="http://www.w3.org/2000/svg"
 width="211.000000pt" height="305.000000pt" viewBox="0 0 211.000000 305.000000"
 preserveAspectRatio="xMidYMid meet">

<g transform="translate(0.000000,305.000000) scale(0.100000,-0.100000)"
fill="#000000" stroke="none">
<path d="M0 1525 l0 -1525 1055 0 1055 0 0 1525 0 1525 -1055 0 -1055 0 0
-1525z m1065 1410 c33 -33 33 -77 -1 -104 -14 -11 -29 -21 -34 -23 -15 -5 36
-185 75 -265 75 -153 147 -152 300 1 93 93 117 136 91 165 -17 18 -21 58 -8
78 11 17 59 33 79 26 32 -11 53 -36 53 -61 0 -34 -27 -62 -60 -62 -25 0 -29
-5 -40 -47 -19 -76 -24 -185 -11 -226 33 -98 138 -88 257 25 47 45 52 52 42
73 -14 31 -5 53 28 65 34 13 74 -10 74 -43 0 -31 -18 -47 -52 -47 -23 0 -39
-14 -86 -74 -63 -78 -115 -161 -153 -238 l-23 -48 -588 0 -588 0 -39 78 c-41
81 -102 172 -162 241 -25 28 -44 41 -62 41 -52 0 -70 74 -21 86 57 14 98 -22
74 -65 -9 -18 -4 -27 32 -62 101 -98 191 -127 243 -75 34 34 41 113 20 217
-19 97 -20 99 -46 99 -49 0 -81 49 -59 89 12 23 64 43 88 34 52 -19 66 -62 33
-105 l-19 -24 69 -95 c112 -154 188 -191 276 -137 21 12 43 41 62 81 29 59 81
223 81 254 0 8 -15 29 -34 46 -27 26 -33 38 -29 60 12 62 94 87 138 42z m-115
-1312 l0 -398 -126 126 -125 127 1 133 c1 74 1 140 1 147 -1 9 -32 12 -121 12
l-120 0 0 -72 0 -73 245 -245 245 -245 -2 -525 -3 -525 -97 125 c-53 69 -219
282 -367 475 l-271 350 0 192 c0 106 3 193 8 193 4 0 60 -53 125 -118 102
-102 117 -122 117 -150 0 -27 22 -61 116 -183 64 -83 119 -148 122 -144 3 3 5
51 3 108 l-2 102 -244 245 -245 245 0 248 0 247 370 0 370 0 0 -397z m374 288
l108 -109 110 109 110 109 74 0 74 0 0 -494 0 -495 -116 -150 c-64 -83 -120
-151 -125 -151 -5 0 -9 172 -9 417 l0 417 -58 -57 -59 -58 -59 56 -59 55 -5
-584 -5 -585 -110 -142 c-60 -79 -115 -150 -122 -158 -10 -13 -12 190 -13 957
l0 972 78 0 77 0 109 -109z"/>
</g>
</svg>
